<?xml version="1.0" standalone="no"?><!DOCTYPE svg PUBLIC "-//W3C//DTD SVG 1.1//EN" "http://www.w3.org/Graphics/SVG/1.1/DTD/svg11.dtd"><svg t="1498006221836" class="icon" style="" viewBox="0 0 1024 1024" version="1.1" xmlns="http://www.w3.org/2000/svg" p-id="11741" xmlns:xlink="http://www.w3.org/1999/xlink" width="128" height="128"><defs><style type="text/css"></style></defs><path d="M448 871.6 448 152.2c0-13.4-10.8-24.2-24.4-24.2l-143.2 0c-13.6 0-24.4 10.8-24.4 24.2l0 719.4c0 13.4 10.8 24.4 24.4 24.4l143.2 0C437.2 896 448 885.2 448 871.6z" p-id="11742" fill="#515151"></path><path d="M743.6 128l-143.2 0c-13.4 0-24.4 10.8-24.4 24.2l0 719.4c0 13.4 10.8 24.4 24.4 24.4l143.2 0c13.4 0 24.4-10.8 24.4-24.4L768 152.2C768 138.8 757.2 128 743.6 128z" p-id="11743" fill="#515151"></path></svg>